<?xml version="1.0" encoding="UTF-8" standalone="no"?>
<!DOCTYPE svg PUBLIC "-//W3C//DTD SVG 1.1//EN" "http://www.w3.org/Graphics/SVG/1.1/DTD/svg11.dtd">
<svg width="100%" height="100%" viewBox="0 0 380 94" version="1.1" xmlns="http://www.w3.org/2000/svg" xmlns:xlink="http://www.w3.org/1999/xlink" xml:space="preserve" xmlns:serif="http://www.serif.com/" style="fill-rule:evenodd;clip-rule:evenodd;stroke-linejoin:round;stroke-miterlimit:2;">
    <g transform="matrix(1,0,0,0.956058,0,0)">
        <g transform="matrix(0.225053,0,0,0.235396,0,1.045961)">
            <g transform="matrix(1,0,0,1.003285,-0.004,-4.443405)">
                <path d="M1577.133,0L1481.151,106.895L1465.774,106.895L1465.774,0L1414.187,0L1414.187,230.903L1407.987,230.903L1323.91,0L1262.65,0L1178.573,230.903L1172.373,230.903L1172.373,0L1099.208,0L1042.164,185.516L985.864,0L911.707,0L911.707,230.903L905.507,230.903L821.182,0L759.922,0L675.845,230.903L669.645,230.903L566.47,124.008L677.581,0L616.321,0L520.339,106.895L504.962,106.895L504.962,0L453.375,0L453.375,230.903L447.175,230.903L363.098,0L301.838,0L217.761,230.903L211.561,230.903L211.561,0L159.726,0L159.726,98.71L51.591,98.71L51.591,0L0.004,0L0.004,248.016L51.591,248.016L51.591,141.617L159.726,141.617L159.726,248.016L263.149,248.016L332.097,38.195L401.541,248.016L504.964,248.016L504.964,141.121L521.581,141.121L625.004,248.016L721.482,248.016L790.43,38.195L859.874,248.016L960.072,248.016L960.072,49.603L1022.572,248.016L1061.51,248.016L1124.01,49.603L1124.01,248.016L1224.208,248.016L1293.156,38.195L1362.6,248.016L1466.023,248.016L1466.023,141.121L1482.64,141.121L1585.815,248.016L1688.494,248.016L1688.494,-0L1577.133,0ZM1527.282,124.008L1630.705,8.681L1636.905,8.681L1636.905,230.903L1630.705,230.903L1527.282,124.008Z" style="fill:white;fill-rule:nonzero;"/>
            </g>
            <g transform="matrix(0.997604,0,0,1.007753,0,-6.661581)">
                <path d="M39.139,414.881L0,414.881L0,299.173L39.916,299.173C51.409,299.173 61.272,301.477 69.503,306.084C77.735,310.692 84.064,317.318 88.49,325.964C92.916,334.61 95.13,344.912 95.13,356.871C95.13,368.934 92.917,379.301 88.49,387.972C84.064,396.644 77.67,403.296 69.309,407.93C60.948,412.564 50.891,414.88 39.139,414.88L39.139,414.881ZM20.734,317.111L20.734,396.942L38.129,396.942C46.205,396.942 52.948,395.454 58.359,392.477C63.769,389.5 67.846,385.048 70.59,379.12C73.334,373.192 74.706,365.776 74.706,356.871C74.706,348.07 73.334,340.718 70.59,334.817C67.846,328.915 63.821,324.489 58.514,321.538C53.207,318.587 46.594,317.112 38.673,317.112L20.734,317.112L20.734,317.111ZM153.942,352.667C154.784,350.485 155.616,348.496 156.439,346.698C158.122,343.022 159.998,339.347 162.069,335.671L182.337,299.172L206.411,299.172L164.166,370.073L164.166,414.881L143.432,414.881L143.432,370.073L100.721,299.172L124.95,299.172L145.607,335.671C147.781,339.502 149.723,343.23 151.431,346.854C152.256,348.605 153.094,350.543 153.943,352.668L153.942,352.667ZM241.623,324.537C241.803,327.883 241.973,331.115 242.132,334.234C242.391,339.282 242.611,343.799 242.792,347.785C242.973,351.771 243.064,354.981 243.064,357.414L243.064,414.88L221.941,414.88L221.941,299.172L245.393,299.172L285.386,362.928C287.043,365.568 288.803,368.558 290.667,371.897C292.531,375.236 294.472,378.964 296.491,383.08C297.535,385.207 298.571,387.456 299.601,389.825C299.449,387.706 299.305,385.562 299.17,383.391C298.885,378.809 298.678,374.46 298.549,370.345C298.42,366.229 298.355,362.748 298.355,359.9L298.355,299.173L319.4,299.173L319.4,414.881L295.87,414.881L259.76,357.493C257.482,353.817 255.334,350.193 253.314,346.621C251.295,343.049 249.121,339.011 246.791,334.507C245.276,331.578 243.553,328.255 241.622,324.538L241.623,324.537ZM367.086,386.225L357.608,414.88L334.932,414.88L375.313,299.172L401.639,299.172L442.952,414.88L420.199,414.88L410.388,386.225L367.085,386.225L367.086,386.225ZM404.672,369.529L399.62,354.774C397.601,348.561 395.504,341.534 393.33,333.69C391.778,328.091 390.107,321.944 388.317,315.249C386.561,322.039 384.932,328.264 383.429,333.923C381.332,341.818 379.352,348.768 377.488,354.774L372.608,369.529L404.672,369.529ZM478.017,318.59C478.051,320.156 478.089,321.773 478.131,323.44C478.235,327.504 478.325,331.581 478.403,335.671C478.481,339.761 478.558,343.605 478.636,347.203C478.714,350.801 478.752,353.894 478.752,356.483L478.752,414.881L458.406,414.881L458.406,299.173L489.624,299.173L511.601,358.891C512.378,361.117 513.245,363.978 514.202,367.472C515.16,370.967 516.143,374.733 517.153,378.771C518.163,382.809 519.12,386.757 520.026,390.614L520.237,391.515L520.414,390.769C521.32,386.964 522.278,383.029 523.287,378.965C524.297,374.901 525.28,371.109 526.238,367.588C527.196,364.068 528.037,361.168 528.762,358.89L550.506,299.172L581.802,299.172L581.802,414.88L561.145,414.88L561.145,356.482C561.145,353.997 561.171,350.994 561.223,347.474C561.275,343.954 561.352,340.174 561.456,336.136L561.767,323.905C561.818,321.872 561.857,319.887 561.883,317.949C561.288,320.168 560.667,322.412 560.02,324.681C558.803,328.952 557.6,333.094 556.409,337.106C555.218,341.118 554.092,344.807 553.031,348.172C551.97,351.537 551.051,354.307 550.274,356.481L528.918,414.879L511.29,414.879L489.624,356.481C488.847,354.307 487.928,351.576 486.867,348.288C485.806,345.001 484.667,341.364 483.45,337.377C482.233,333.391 481.017,329.236 479.8,324.913L478.016,318.588L478.017,318.59ZM625.834,299.172L625.834,414.88L605.1,414.88L605.1,299.172L625.834,299.172ZM698.443,416.434C688.296,416.434 679.236,414.078 671.263,409.367C663.29,404.656 657,397.874 652.392,389.021C647.784,380.168 645.481,369.529 645.481,357.104C645.481,344.627 647.798,333.949 652.431,325.071C657.065,316.192 663.381,309.397 671.379,304.686C679.378,299.975 688.399,297.619 698.442,297.619C704.758,297.619 710.673,298.512 716.187,300.298C721.701,302.084 726.619,304.699 730.942,308.141C735.265,311.584 738.824,315.79 741.62,320.76C744.416,325.73 746.279,331.373 747.211,337.689L726.321,337.689C725.648,334.22 724.496,331.166 722.865,328.526C721.234,325.886 719.202,323.647 716.769,321.809C714.336,319.971 711.592,318.573 708.537,317.616C705.483,316.658 702.221,316.179 698.752,316.179C692.436,316.179 686.832,317.771 681.939,320.955C677.047,324.139 673.216,328.772 670.446,334.856C667.676,340.939 666.291,348.355 666.291,357.105C666.291,365.958 667.689,373.413 670.484,379.47C673.28,385.527 677.124,390.109 682.016,393.215C686.908,396.321 692.461,397.874 698.673,397.874C702.142,397.874 705.403,397.395 708.458,396.437C711.512,395.479 714.269,394.081 716.728,392.244C719.187,390.406 721.245,388.154 722.902,385.488C724.559,382.822 725.698,379.78 726.319,376.363L747.286,376.363C746.509,381.903 744.814,387.093 742.199,391.933C739.585,396.774 736.155,401.032 731.909,404.708C727.664,408.384 722.733,411.257 717.115,413.328C711.498,415.399 705.272,416.434 698.439,416.434L698.443,416.434ZM806.929,416.667C797.973,416.667 790.194,415.269 783.593,412.474C776.992,409.678 771.828,405.614 768.101,400.282C764.373,394.95 762.354,388.478 762.044,380.868L782.468,380.868C782.83,384.906 784.099,388.271 786.273,390.963C788.447,393.655 791.321,395.661 794.893,396.981C798.465,398.301 802.426,398.961 806.774,398.961C811.33,398.961 815.355,398.262 818.85,396.864C822.345,395.466 825.075,393.512 827.043,391.001C829.01,388.49 829.994,385.578 829.994,382.265C829.994,379.262 829.127,376.777 827.393,374.81C825.659,372.843 823.225,371.173 820.093,369.801C816.961,368.429 813.298,367.225 809.105,366.19L795.981,362.773C786.3,360.288 778.754,356.535 773.344,351.513C767.934,346.491 765.229,339.89 765.229,331.711C765.229,324.877 767.068,318.898 770.747,313.772C774.426,308.647 779.452,304.673 785.826,301.852C792.2,299.03 799.429,297.62 807.513,297.62C815.753,297.62 822.982,299.044 829.2,301.891C835.418,304.738 840.276,308.673 843.774,313.695C847.272,318.717 849.021,324.438 849.021,330.857L829.063,330.857C828.545,325.887 826.332,322.043 822.423,319.325C818.514,316.607 813.428,315.248 807.163,315.248C802.814,315.248 799.074,315.908 795.942,317.228C792.81,318.548 790.402,320.347 788.72,322.625C787.037,324.903 786.196,327.517 786.196,330.468C786.196,333.678 787.193,336.318 789.186,338.389C791.179,340.46 793.69,342.117 796.719,343.359C799.748,344.602 802.815,345.611 805.921,346.388L816.715,349.184C821.012,350.219 825.18,351.591 829.218,353.3C833.256,355.008 836.893,357.17 840.129,359.784C843.365,362.398 845.94,365.569 847.856,369.297C849.772,373.025 850.729,377.399 850.729,382.421C850.729,389.203 848.995,395.17 845.526,400.321C842.057,405.472 837.061,409.484 830.538,412.358C824.015,415.231 816.146,416.668 806.93,416.668L806.929,416.667Z" style="fill:white;"/>
            </g>
        </g>
    </g>
</svg>
