<?xml version="1.0" encoding="UTF-8" standalone="no"?><!DOCTYPE svg PUBLIC "-//W3C//DTD SVG 1.1//EN" "http://www.w3.org/Graphics/SVG/1.1/DTD/svg11.dtd"><svg width="100%" height="100%" viewBox="0 0 380 86" version="1.1" xmlns="http://www.w3.org/2000/svg" xmlns:xlink="http://www.w3.org/1999/xlink" xml:space="preserve" xmlns:serif="http://www.serif.com/" style="fill-rule:evenodd;clip-rule:evenodd;stroke-linejoin:round;stroke-miterlimit:2;"><rect id="Logo-Slogan" serif:id="Logo Slogan" x="0" y="0" width="380" height="85.564" style="fill:none;"/><clipPath id="_clip1"><rect x="0" y="0" width="380" height="85.564"/></clipPath><g clip-path="url(#_clip1)"><g><g><g><path d="M354.938,-0l-21.601,24.136l-3.461,0l0,-24.136l-11.61,0l0,52.136l-1.395,0l-18.922,-52.136l-13.787,0l-18.922,52.136l-1.395,0l0,-52.136l-16.466,0l-12.838,41.888l-12.67,-41.888l-16.689,0l0,52.136l-1.395,0l-18.978,-52.136l-13.787,0l-18.922,52.136l-1.395,0l-23.22,-24.136l25.006,-28l-13.787,0l-21.601,24.136l-3.461,0l0,-24.136l-11.61,0l0,52.136l-1.395,0l-18.922,-52.136l-13.787,0l-18.922,52.136l-1.395,0l0,-52.136l-11.666,0l0,22.288l-24.336,0l0,-22.288l-11.61,0l0,56l11.61,0l0,-24.024l24.336,0l0,24.024l23.276,0l15.517,-47.376l15.629,47.376l23.276,0l0,-24.136l3.74,0l23.276,24.136l21.713,0l15.517,-47.376l15.629,47.376l22.55,0l0,-44.8l14.066,44.8l8.763,0l14.066,-44.8l0,44.8l22.55,0l15.517,-47.376l15.629,47.376l23.276,0l0,-24.136l3.74,0l23.22,24.136l23.108,0l0,-56l-25.062,0Zm-11.219,28l23.276,-26.04l1.395,-0l0,50.176l-1.395,0l-23.276,-24.136Z" style="fill-rule:nonzero;"/></g></g></g><path d="M3.129,79.388l0,5.907l-3.129,0l0,-17.463l6.528,0c1.336,0 2.461,0.25 3.375,0.75c0.914,0.5 1.606,1.186 2.074,2.057c0.469,0.871 0.703,1.862 0.703,2.971c0,1.117 -0.236,2.11 -0.709,2.977c-0.473,0.867 -1.17,1.551 -2.092,2.051c-0.922,0.5 -2.055,0.75 -3.399,0.75l-3.352,0Zm0,-2.578l2.942,0c0.789,0 1.436,-0.137 1.94,-0.41c0.504,-0.273 0.875,-0.652 1.113,-1.137c0.238,-0.484 0.357,-1.035 0.357,-1.653c0,-0.617 -0.119,-1.164 -0.357,-1.641c-0.238,-0.477 -0.611,-0.848 -1.119,-1.113c-0.508,-0.266 -1.16,-0.398 -1.957,-0.398l-2.918,0l0,6.352Zm12.212,8.485l0,-13.103l2.953,0l0,2.192l0.141,0c0.234,-0.758 0.645,-1.342 1.231,-1.752c0.586,-0.41 1.254,-0.615 2.004,-0.615c0.172,0 0.363,0.008 0.574,0.023c0.211,0.016 0.391,0.035 0.539,0.059l0,2.801c-0.125,-0.039 -0.328,-0.074 -0.609,-0.105c-0.281,-0.031 -0.559,-0.047 -0.832,-0.047c-0.563,0 -1.068,0.121 -1.518,0.363c-0.449,0.242 -0.801,0.576 -1.055,1.002c-0.254,0.426 -0.381,0.916 -0.381,1.471l0,7.712l-3.047,0Zm14.685,0.27c-1.274,0 -2.379,-0.283 -3.317,-0.85c-0.938,-0.566 -1.662,-1.356 -2.174,-2.367c-0.512,-1.012 -0.768,-2.19 -0.768,-3.534c0,-1.36 0.256,-2.549 0.768,-3.569c0.512,-1.02 1.236,-1.811 2.174,-2.373c0.938,-0.563 2.043,-0.844 3.317,-0.844c1.281,0 2.391,0.281 3.328,0.844c0.938,0.563 1.662,1.354 2.174,2.373c0.512,1.02 0.768,2.209 0.768,3.569c0,1.344 -0.256,2.522 -0.768,3.534c-0.512,1.012 -1.236,1.801 -2.174,2.367c-0.938,0.566 -2.047,0.85 -3.328,0.85Zm0,-2.473c0.711,0 1.303,-0.191 1.776,-0.574c0.473,-0.383 0.824,-0.899 1.055,-1.547c0.23,-0.649 0.346,-1.371 0.346,-2.168c0,-0.805 -0.115,-1.531 -0.346,-2.18c-0.23,-0.649 -0.582,-1.164 -1.055,-1.547c-0.473,-0.383 -1.065,-0.574 -1.776,-0.574c-0.711,0 -1.299,0.191 -1.764,0.574c-0.465,0.383 -0.813,0.897 -1.043,1.541c-0.23,0.645 -0.346,1.373 -0.346,2.186c0,0.797 0.115,1.52 0.346,2.168c0.23,0.649 0.578,1.164 1.043,1.547c0.465,0.383 1.053,0.574 1.764,0.574Zm18.959,-8.261c0.179,-0.492 0.421,-0.921 0.724,-1.285c0.434,-0.52 0.949,-0.91 1.547,-1.172c0.598,-0.262 1.236,-0.393 1.916,-0.393c0.789,0 1.496,0.172 2.121,0.516c0.625,0.344 1.121,0.846 1.488,1.506c0.367,0.66 0.551,1.479 0.551,2.455l0,8.837l-3.047,0l0,-8.368c0,-0.813 -0.223,-1.406 -0.668,-1.781c-0.445,-0.375 -0.981,-0.563 -1.606,-0.563c-0.484,0 -0.906,0.105 -1.266,0.316c-0.359,0.211 -0.635,0.502 -0.826,0.873c-0.191,0.371 -0.287,0.803 -0.287,1.295l0,8.227l-2.977,0l0,-8.509c0,-0.664 -0.207,-1.197 -0.621,-1.6c-0.414,-0.402 -0.945,-0.604 -1.594,-0.604c-0.445,0 -0.854,0.102 -1.225,0.305c-0.371,0.203 -0.666,0.504 -0.885,0.902c-0.219,0.398 -0.328,0.891 -0.328,1.477l0,8.028l-3.047,0l0,-13.103l2.86,0l0.092,2.485c0.175,-0.485 0.4,-0.899 0.675,-1.243c0.395,-0.492 0.856,-0.858 1.383,-1.096c0.527,-0.238 1.08,-0.357 1.658,-0.357c0.945,0 1.709,0.297 2.291,0.891c0.464,0.474 0.821,1.127 1.069,1.959Zm11.583,10.465l0,-13.103l3.047,0l0,13.103l-3.047,0Zm1.524,-14.955c-0.484,0 -0.9,-0.164 -1.248,-0.492c-0.348,-0.328 -0.522,-0.719 -0.522,-1.172c0,-0.469 0.174,-0.865 0.522,-1.19c0.348,-0.324 0.764,-0.486 1.248,-0.486c0.492,0 0.912,0.162 1.26,0.486c0.348,0.324 0.522,0.721 0.522,1.19c0,0.453 -0.174,0.844 -0.522,1.172c-0.348,0.328 -0.768,0.492 -1.26,0.492Zm9.716,15.224c-1.008,0 -1.899,-0.145 -2.672,-0.434c-0.774,-0.289 -1.408,-0.711 -1.904,-1.266c-0.496,-0.555 -0.818,-1.227 -0.967,-2.016l2.848,-0.539c0.18,0.649 0.498,1.131 0.955,1.447c0.457,0.316 1.057,0.475 1.799,0.475c0.75,0 1.346,-0.15 1.787,-0.451c0.441,-0.301 0.662,-0.674 0.662,-1.119c0,-0.375 -0.145,-0.686 -0.434,-0.932c-0.289,-0.246 -0.734,-0.436 -1.336,-0.568l-2.239,-0.481c-1.234,-0.266 -2.156,-0.703 -2.766,-1.313c-0.609,-0.609 -0.914,-1.395 -0.914,-2.356c0,-0.813 0.223,-1.516 0.668,-2.11c0.445,-0.594 1.065,-1.055 1.858,-1.383c0.793,-0.328 1.713,-0.492 2.76,-0.492c0.992,0 1.846,0.141 2.561,0.422c0.715,0.281 1.293,0.674 1.735,1.178c0.441,0.504 0.748,1.096 0.92,1.776l-2.719,0.539c-0.148,-0.461 -0.418,-0.85 -0.809,-1.166c-0.391,-0.316 -0.942,-0.475 -1.653,-0.475c-0.649,0 -1.19,0.143 -1.623,0.428c-0.434,0.285 -0.65,0.65 -0.65,1.096c0,0.383 0.145,0.699 0.434,0.949c0.289,0.25 0.766,0.445 1.43,0.586l2.227,0.469c1.242,0.266 2.164,0.691 2.766,1.277c0.602,0.586 0.902,1.34 0.902,2.262c0,0.828 -0.238,1.557 -0.715,2.186c-0.477,0.629 -1.139,1.121 -1.987,1.477c-0.848,0.356 -1.822,0.533 -2.924,0.533Zm10.681,-5.965c0.025,0.722 0.165,1.339 0.418,1.852c0.281,0.57 0.676,1 1.184,1.289c0.508,0.289 1.098,0.434 1.77,0.434c0.445,0 0.85,-0.064 1.213,-0.193c0.363,-0.129 0.678,-0.32 0.943,-0.574c0.266,-0.254 0.465,-0.565 0.598,-0.932l2.801,0.574c-0.211,0.703 -0.57,1.318 -1.078,1.846c-0.508,0.527 -1.143,0.938 -1.904,1.231c-0.762,0.293 -1.631,0.439 -2.608,0.439c-1.32,0 -2.455,-0.277 -3.405,-0.832c-0.949,-0.555 -1.68,-1.336 -2.192,-2.344c-0.512,-1.008 -0.768,-2.196 -0.768,-3.563c0,-1.352 0.252,-2.535 0.756,-3.551c0.504,-1.016 1.219,-1.811 2.145,-2.385c0.926,-0.574 2.014,-0.861 3.264,-0.861c0.797,0 1.557,0.129 2.28,0.387c0.723,0.258 1.363,0.656 1.922,1.195c0.559,0.539 0.996,1.225 1.313,2.057c0.316,0.832 0.475,1.822 0.475,2.971l0,0.961l-9.126,0Zm0.012,-2.074l6.144,0c-0.046,-0.488 -0.15,-0.932 -0.312,-1.33c-0.227,-0.559 -0.565,-0.994 -1.014,-1.307c-0.449,-0.313 -1.01,-0.469 -1.682,-0.469c-0.672,0 -1.242,0.158 -1.711,0.475c-0.469,0.316 -0.826,0.738 -1.072,1.266c-0.195,0.417 -0.312,0.872 -0.353,1.365Zm16.556,8.005c-1.031,0 -1.955,-0.264 -2.772,-0.791c-0.816,-0.527 -1.459,-1.295 -1.928,-2.303c-0.469,-1.008 -0.703,-2.231 -0.703,-3.668c0,-1.453 0.24,-2.682 0.721,-3.686c0.481,-1.004 1.129,-1.764 1.946,-2.28c0.816,-0.516 1.725,-0.774 2.725,-0.774c0.781,0 1.42,0.131 1.916,0.393c0.496,0.262 0.891,0.572 1.184,0.932c0.293,0.359 0.514,0.695 0.662,1.008l0.129,0l0,-6.528l3.047,0l0,17.463l-2.989,0l0,-2.074l-0.188,0c-0.156,0.313 -0.385,0.649 -0.686,1.008c-0.301,0.359 -0.697,0.666 -1.19,0.92c-0.492,0.254 -1.117,0.381 -1.875,0.381Zm0.832,-2.508c0.664,0 1.227,-0.178 1.688,-0.533c0.461,-0.356 0.813,-0.854 1.055,-1.494c0.242,-0.641 0.363,-1.387 0.363,-2.239c0,-0.852 -0.119,-1.592 -0.357,-2.221c-0.238,-0.629 -0.59,-1.119 -1.055,-1.471c-0.465,-0.352 -1.029,-0.527 -1.694,-0.527c-0.688,0 -1.262,0.182 -1.723,0.545c-0.461,0.363 -0.809,0.863 -1.043,1.5c-0.234,0.637 -0.352,1.361 -0.352,2.174c0,0.813 0.117,1.541 0.352,2.186c0.234,0.645 0.584,1.152 1.049,1.524c0.465,0.371 1.037,0.557 1.717,0.557Zm15.505,2.274l0,-17.463l11.181,0l0,2.637l-8.052,0l0,5.239l7.266,0l0,2.602l-7.266,0l0,6.985l-3.129,0Zm21.705,-2.629c-0.352,0.842 -0.821,1.491 -1.406,1.95c-0.719,0.563 -1.602,0.844 -2.649,0.844c-0.899,0 -1.686,-0.191 -2.362,-0.574c-0.676,-0.383 -1.199,-0.943 -1.57,-1.682c-0.371,-0.738 -0.557,-1.631 -0.557,-2.678l0,-8.333l3.047,0l0,7.864c0,0.875 0.229,1.563 0.686,2.063c0.457,0.5 1.084,0.75 1.881,0.75c0.539,0 1.02,-0.117 1.442,-0.352c0.422,-0.234 0.752,-0.578 0.99,-1.031c0.238,-0.453 0.357,-0.992 0.357,-1.617l0,-7.677l3.059,0l0,13.103l-2.918,0l0,-2.629Zm6.633,-8.083l-1.863,0l0,-2.391l1.863,0l0,-3.118l3.047,0l0,3.118l2.532,0l0,2.391l-2.532,0l0,7.02c0,0.477 0.102,0.826 0.305,1.049c0.203,0.223 0.535,0.334 0.996,0.334c0.141,0 0.326,-0.018 0.557,-0.053c0.23,-0.035 0.416,-0.068 0.557,-0.1l0.481,2.356c-0.336,0.102 -0.68,0.174 -1.031,0.217c-0.352,0.043 -0.688,0.064 -1.008,0.064c-1.258,0 -2.223,-0.313 -2.895,-0.938c-0.672,-0.625 -1.008,-1.516 -1.008,-2.672l0,-7.278Zm16.537,8.083c-0.352,0.842 -0.821,1.491 -1.406,1.95c-0.719,0.563 -1.602,0.844 -2.649,0.844c-0.899,0 -1.686,-0.191 -2.362,-0.574c-0.676,-0.383 -1.199,-0.943 -1.57,-1.682c-0.371,-0.738 -0.557,-1.631 -0.557,-2.678l0,-8.333l3.047,0l0,7.864c0,0.875 0.229,1.563 0.686,2.063c0.457,0.5 1.084,0.75 1.881,0.75c0.539,0 1.02,-0.117 1.442,-0.352c0.422,-0.234 0.752,-0.578 0.99,-1.031c0.238,-0.453 0.357,-0.992 0.357,-1.617l0,-7.677l3.059,0l0,13.103l-2.918,0l0,-2.629Zm6.153,2.629l0,-13.103l2.953,0l0,2.192l0.141,0c0.234,-0.758 0.645,-1.342 1.231,-1.752c0.586,-0.41 1.254,-0.615 2.004,-0.615c0.172,0 0.363,0.008 0.574,0.023c0.211,0.016 0.391,0.035 0.539,0.059l0,2.801c-0.125,-0.039 -0.328,-0.074 -0.609,-0.105c-0.281,-0.031 -0.559,-0.047 -0.832,-0.047c-0.563,0 -1.068,0.121 -1.518,0.363c-0.449,0.242 -0.801,0.576 -1.055,1.002c-0.254,0.426 -0.381,0.916 -0.381,1.471l0,7.712l-3.047,0Zm11.455,-5.696c0.025,0.722 0.165,1.339 0.418,1.852c0.281,0.57 0.676,1 1.184,1.289c0.508,0.289 1.098,0.434 1.77,0.434c0.445,0 0.85,-0.064 1.213,-0.193c0.363,-0.129 0.678,-0.32 0.943,-0.574c0.266,-0.254 0.465,-0.565 0.598,-0.932l2.801,0.574c-0.211,0.703 -0.57,1.318 -1.078,1.846c-0.508,0.527 -1.143,0.938 -1.904,1.231c-0.762,0.293 -1.631,0.439 -2.608,0.439c-1.32,0 -2.455,-0.277 -3.405,-0.832c-0.949,-0.555 -1.68,-1.336 -2.192,-2.344c-0.512,-1.008 -0.768,-2.196 -0.768,-3.563c0,-1.352 0.252,-2.535 0.756,-3.551c0.504,-1.016 1.219,-1.811 2.145,-2.385c0.926,-0.574 2.014,-0.861 3.264,-0.861c0.797,0 1.557,0.129 2.28,0.387c0.723,0.258 1.363,0.656 1.922,1.195c0.559,0.539 0.996,1.225 1.313,2.057c0.316,0.832 0.475,1.822 0.475,2.971l0,0.961l-9.126,0Zm0.012,-2.074l6.144,0c-0.046,-0.488 -0.15,-0.932 -0.312,-1.33c-0.227,-0.559 -0.565,-0.994 -1.014,-1.307c-0.449,-0.313 -1.01,-0.469 -1.682,-0.469c-0.672,0 -1.242,0.158 -1.711,0.475c-0.469,0.316 -0.826,0.738 -1.072,1.266c-0.195,0.417 -0.312,0.872 -0.353,1.365Zm13.931,7.97c-0.523,0 -0.967,-0.18 -1.33,-0.539c-0.363,-0.359 -0.545,-0.805 -0.545,-1.336c0,-0.523 0.182,-0.965 0.545,-1.324c0.363,-0.359 0.807,-0.539 1.33,-0.539c0.531,0 0.979,0.18 1.342,0.539c0.363,0.359 0.545,0.801 0.545,1.324c0,0.531 -0.182,0.977 -0.545,1.336c-0.363,0.359 -0.811,0.539 -1.342,0.539Z"/></g></svg>